<?xml version="1.0" encoding="UTF-8"?>
<svg id="Logo-YILING-100x230" xmlns="http://www.w3.org/2000/svg" xmlns:xlink="http://www.w3.org/1999/xlink" viewBox="0 0 1000 230">
  <defs>
    <style>
      .cls-1 {
        fill: url(#_未命名的渐变_4-3);
      }

      .cls-2 {
        fill: url(#_未命名的渐变_4-2);
      }

      .cls-3 {
        fill: url(#_未命名的渐变_4-4);
      }

      .cls-4 {
        fill: url(#_未命名的渐变_4);
      }
    </style>
    <linearGradient id="_未命名的渐变_4" data-name="未命名的渐变 4" x1="-461.88" y1="668.05" x2="-459.54" y2="668.05" gradientTransform="translate(19427.93 39851.41) scale(42.06 -59.41)" gradientUnits="userSpaceOnUse">
      <stop offset="0" stop-color="#00ff8f"/>
      <stop offset="1" stop-color="#00a1ff"/>
    </linearGradient>
    <linearGradient id="_未命名的渐变_4-2" data-name="未命名的渐变 4" x1="-460.45" y1="673.37" x2="-458.11" y2="673.37" gradientTransform="translate(27447.54 28507.38) scale(59.41 -42.07)" xlink:href="#_未命名的渐变_4"/>
    <linearGradient id="_未命名的渐变_4-3" data-name="未命名的渐变 4" x1="-460.09" y1="668.93" x2="-457.75" y2="668.93" gradientTransform="translate(19485.9 39812.49) scale(42.07 -59.41)" xlink:href="#_未命名的渐变_4"/>
    <linearGradient id="_未命名的渐变_4-4" data-name="未命名的渐变 4" x1="-461.33" y1="675.16" x2="-458.99" y2="675.16" gradientTransform="translate(27408.61 28448.7) scale(59.41 -42.06)" xlink:href="#_未命名的渐变_4"/>
  </defs>
  <g id="SvgjsG14514">
    <path class="cls-4" d="m71.88,160.87c0-24.69,10.16-47.04,26.5-63.12-8.81-4.04-18.57-6.35-28.9-6.35C31.11,91.39,0,122.5,0,160.87s31.11,69.48,69.48,69.48c10.33,0,20.09-2.31,28.9-6.35-16.34-16.09-26.5-38.44-26.5-63.13Z"/>
    <path class="cls-2" d="m160.52,158.47c-24.69,0-47.04-10.16-63.12-26.51-4.04,8.81-6.35,18.58-6.35,28.91,0,38.37,31.11,69.48,69.48,69.48s69.48-31.11,69.48-69.48c0-10.33-2.31-20.09-6.35-28.91-16.09,16.35-38.44,26.51-63.13,26.51Z"/>
    <path class="cls-1" d="m160.52.35c-10.33,0-20.09,2.31-28.91,6.35,16.35,16.09,26.51,38.44,26.51,63.13s-10.16,47.04-26.51,63.12c8.81,4.04,18.58,6.35,28.91,6.35,38.37,0,69.48-31.11,69.48-69.48S198.89.35,160.52.35Z"/>
    <path class="cls-3" d="m69.48,72.22c24.69,0,47.04,10.16,63.12,26.5,4.04-8.81,6.35-18.57,6.35-28.9C138.96,31.46,107.85.35,69.48.35S0,31.46,0,69.83c0,10.33,2.31,20.09,6.35,28.9,16.09-16.34,38.44-26.5,63.13-26.5Z"/>
  </g>
  <g id="SvgjsG14515">
    <path d="m400.03,37.72l-53.04,82.57v75.88h-33.61v-75.11l-53.38-83.34h37.07l32.94,53.95,33.05-53.95h36.96Zm21.38,158.45V37.72h33.61v158.45h-33.61Zm105.63-28.81h48.02v28.81h-81.63V37.72h33.61v129.64h0Zm74.42,28.81V37.72h33.61v158.45h-33.61Zm180.06-158.45h33.61v158.45h-37.98l-70.05-113.28v113.28h-33.61V37.72h37.54l70.49,112.62V37.72h0Zm139.47,160.66c-46.66,0-81.02-31.78-81.02-81.53s35.14-82.31,82.69-82.31c31.22,0,57.07,13.57,71.17,37.51l-29.43,15.45c-8.5-16.33-23.72-24.16-41.74-24.16-27.97,0-49.01,18.98-49.01,52.74s19.7,53.51,50.24,53.51c20.7,0,39.72-10.15,44.31-33.43h-42.64v-26.41h74.42v86.43h-26.41v-22.07c-10.41,15.12-27.86,24.27-52.59,24.27h0Z"/>
  </g>
</svg>