<?xml version="1.0" encoding="UTF-8"?>
<svg id="_图层_2" data-name="图层 2" xmlns="http://www.w3.org/2000/svg" xmlns:xlink="http://www.w3.org/1999/xlink" viewBox="0 0 381 261.78">
  <defs>
    <style>
      .cls-1 {
        fill: url(#_未命名的渐变_4-3);
      }

      .cls-2 {
        fill: url(#_未命名的渐变_4-2);
      }

      .cls-3 {
        fill: url(#_未命名的渐变_4-4);
      }

      .cls-4 {
        fill: url(#_未命名的渐变_4);
      }
    </style>
    <linearGradient id="_未命名的渐变_4" data-name="未命名的渐变 4" x1="-788.12" y1="765.98" x2="-787.12" y2="765.98" gradientTransform="translate(51501.27 70648.74) scale(65.2 -92.09)" gradientUnits="userSpaceOnUse">
      <stop offset="0" stop-color="#00ff8f"/>
      <stop offset="1" stop-color="#00a1ff"/>
    </linearGradient>
    <linearGradient id="_未命名的渐变_4-2" data-name="未命名的渐变 4" x1="-789.25" y1="770.44" x2="-788.25" y2="770.44" gradientTransform="translate(72861.07 50358.49) scale(92.09 -65.21)" xlink:href="#_未命名的渐变_4"/>
    <linearGradient id="_未命名的渐变_4-3" data-name="未命名的渐变 4" x1="-788.12" y1="765.98" x2="-787.12" y2="765.98" gradientTransform="translate(51593.02 70588.41) scale(65.21 -92.09)" xlink:href="#_未命名的渐变_4"/>
    <linearGradient id="_未命名的渐变_4-4" data-name="未命名的渐变 4" x1="-789.25" y1="770.45" x2="-788.25" y2="770.45" gradientTransform="translate(72800.73 50266.95) scale(92.09 -65.2)" xlink:href="#_未命名的渐变_4"/>
  </defs>
  <g id="_图层_1-2" data-name="图层 1">
    <g>
      <g id="SvgjsG14068">
        <path class="cls-4" d="m162.36,106.39c0-16.36,6.74-31.17,17.57-41.84-5.84-2.68-12.31-4.21-19.15-4.21-25.43,0-46.05,20.62-46.05,46.05s20.62,46.05,46.05,46.05c6.85,0,13.32-1.53,19.15-4.21-10.83-10.66-17.57-25.47-17.57-41.84Z"/>
        <path class="cls-2" d="m221.11,104.8c-16.36,0-31.17-6.74-41.84-17.57-2.68,5.84-4.21,12.31-4.21,19.16,0,25.43,20.62,46.05,46.05,46.05s46.05-20.62,46.05-46.05c0-6.85-1.53-13.32-4.21-19.16-10.66,10.84-25.47,17.57-41.84,17.57Z"/>
        <path class="cls-1" d="m221.11,0c-6.85,0-13.32,1.53-19.16,4.21,10.84,10.66,17.57,25.47,17.57,41.84s-6.74,31.17-17.57,41.84c5.84,2.68,12.31,4.21,19.16,4.21,25.43,0,46.05-20.62,46.05-46.05S246.55,0,221.11,0Z"/>
        <path class="cls-3" d="m160.78,47.64c16.36,0,31.17,6.74,41.84,17.57,2.68-5.84,4.21-12.31,4.21-19.15,0-25.43-20.62-46.05-46.05-46.05s-46.05,20.62-46.05,46.05c0,6.85,1.53,13.32,4.21,19.15,10.66-10.83,25.47-17.57,41.84-17.57Z"/>
      </g>
      <g id="SvgjsG14069">
        <path d="m70.82,178.64l-26.83,42.21v38.79h-17v-38.4L0,178.64h18.75l16.66,27.58,16.72-27.58h18.69Zm11.17,81v-81h17v81h-17Zm55-14h25v15h-42v-81h17v66h0Zm38,14v-81h17v81h-17Zm94-81h17v81h-19.69l-36.31-57.91v57.91h-17v-81h19.46l36.54,57.57v-57.57h0Zm73.11,83.14c-22.97,0-39.88-16.41-39.88-42.11s17.3-42.51,40.71-42.51c15.37,0,28.09,7.01,35.03,19.37l-14.49,7.98c-4.19-8.43-11.68-12.48-20.55-12.48-13.77,0-24.13,9.8-24.13,27.24s9.7,27.64,24.73,27.64c10.19,0,19.55-5.24,21.81-17.27h-22.36v-14h38v45h-13v-11.4c-5.12,7.81-13.72,12.54-25.89,12.54h0Z"/>
      </g>
    </g>
  </g>
</svg>