<?xml version="1.0" encoding="UTF-8"?>
<svg xmlns="http://www.w3.org/2000/svg" xmlns:xlink="http://www.w3.org/1999/xlink"
     viewBox="0 0 428.92 98.34">
    <defs>
        <style>
            .cls-1 {
            fill: url(#_icolor_4-3);
            }

            .cls-2 {
            fill: url(#_icolor_4-2);
            }

            .cls-3 {
            fill: url(#_icolor_4-4);
            }

            .cls-4 {
            fill: url(#_icolor_4);
            }
        </style>
        <linearGradient id="_icolor_4" x1="-118.32" y1="994.84" x2="-117.32" y2="994.84"
                        gradientTransform="translate(4976.95 59174.02) scale(42.06 -59.41)"
                        gradientUnits="userSpaceOnUse">
            <stop offset="0" stop-color="#00ff8f"/>
            <stop offset="1" stop-color="#00a1ff"/>
        </linearGradient>
        <linearGradient id="_icolor_4-2" x1="-115.33" y1="1003.28" x2="-114.33" y2="1003.28"
                        gradientTransform="translate(6890.94 42282.07) scale(59.41 -42.07)" xlink:href="#_icolor_4"/>
        <linearGradient id="_icolor_4-3" x1="-118.32" y1="994.84" x2="-117.32" y2="994.84"
                        gradientTransform="translate(5033.62 59135.1) scale(42.07 -59.41)" xlink:href="#_icolor_4"/>
        <linearGradient id="_icolor_4-4" x1="-115.33" y1="1003.29" x2="-114.33" y2="1003.29"
                        gradientTransform="translate(6852.01 42222.2) scale(59.41 -42.06)" xlink:href="#_icolor_4"/>
    </defs>
    <g>
        <g>
            <g id="SvgjsG14514">
                <path class="cls-4"
                      d="m30.73,68.63c0-10.56,4.35-20.11,11.33-26.99-3.77-1.73-7.94-2.72-12.36-2.72C13.3,38.93,0,52.23,0,68.63s13.3,29.71,29.71,29.71c4.42,0,8.59-.99,12.36-2.72-6.99-6.88-11.33-16.43-11.33-26.99Z"/>
                <path class="cls-2"
                      d="m68.63,67.61c-10.56,0-20.11-4.35-26.99-11.34-1.73,3.77-2.72,7.94-2.72,12.36,0,16.41,13.3,29.71,29.71,29.71s29.71-13.3,29.71-29.71c0-4.42-.99-8.59-2.72-12.36-6.88,6.99-16.43,11.34-26.99,11.34Z"/>
                <path class="cls-1"
                      d="m68.63,0c-4.42,0-8.59.99-12.36,2.72,6.99,6.88,11.34,16.43,11.34,26.99s-4.35,20.11-11.34,26.99c3.77,1.73,7.94,2.72,12.36,2.72,16.41,0,29.71-13.3,29.71-29.71S85.04,0,68.63,0Z"/>
                <path class="cls-3"
                      d="m29.71,30.73c10.56,0,20.11,4.35,26.99,11.33,1.73-3.77,2.72-7.94,2.72-12.36C59.41,13.3,46.11,0,29.71,0S0,13.3,0,29.71c0,4.42.99,8.59,2.72,12.36,6.88-6.99,16.43-11.33,26.99-11.33Z"/>
            </g>
            <g id="SvgjsG14515">
                <path d="m179.02,16.85l-22.09,34.39v31.61h-14v-31.29l-22.23-34.71h15.44l13.72,22.47,13.77-22.47h15.4Zm8.91,66V16.85h14v66h-14Zm44-12h20v12h-34V16.85h14v54h0Zm31,12V16.85h14v66h-14Zm75-66h14v66h-15.82l-29.18-47.18v47.18h-14V16.85h15.64l29.36,46.91V16.85h0Zm58.09,66.92c-19.44,0-33.75-13.24-33.75-33.96s14.64-34.28,34.44-34.28c13,0,23.77,5.65,29.64,15.62l-12.26,6.43c-3.54-6.8-9.88-10.06-17.39-10.06-11.65,0-20.41,7.9-20.41,21.97s8.2,22.29,20.93,22.29c8.62,0,16.55-4.23,18.46-13.92h-17.76v-11h31v36h-11v-9.19c-4.33,6.3-11.61,10.11-21.91,10.11h0Z"/>
            </g>
        </g>
    </g>
</svg>
