<?xml version="1.0" encoding="UTF-8"?>
<svg id="Logo-YILING-500x500" xmlns="http://www.w3.org/2000/svg" xmlns:xlink="http://www.w3.org/1999/xlink" viewBox="0 0 500 400">
  <defs>
    <style>
      .cls-1 {
        fill: url(#_未命名的渐变_4-3);
      }

      .cls-2 {
        fill: url(#_未命名的渐变_4-2);
      }

      .cls-3 {
        fill: url(#_未命名的渐变_4-4);
      }

      .cls-4 {
        fill: url(#_未命名的渐变_4);
      }
    </style>
    <linearGradient id="_未命名的渐变_4" data-name="未命名的渐变 4" x1="-457.57" y1="75.01" x2="-455.03" y2="75.01" gradientTransform="translate(19386.87 4631.1) scale(42.06 -59.41)" gradientUnits="userSpaceOnUse">
      <stop offset="0" stop-color="#00ff8f"/>
      <stop offset="1" stop-color="#00a1ff"/>
    </linearGradient>
    <linearGradient id="_未命名的渐变_4-2" data-name="未命名的渐变 4" x1="-456.98" y1="76.14" x2="-454.43" y2="76.14" gradientTransform="translate(27389.12 3399.57) scale(59.41 -42.07)" xlink:href="#_未命名的渐变_4"/>
    <linearGradient id="_未命名的渐变_4-3" data-name="未命名的渐变 4" x1="-455.51" y1="76.02" x2="-452.96" y2="76.02" gradientTransform="translate(19444.83 4592.18) scale(42.07 -59.41)" xlink:href="#_未命名的渐变_4"/>
    <linearGradient id="_未命名的渐变_4-4" data-name="未命名的渐变 4" x1="-457.99" y1="78.21" x2="-455.45" y2="78.21" gradientTransform="translate(27350.2 3343.03) scale(59.41 -42.06)" xlink:href="#_未命名的渐变_4"/>
  </defs>
  <g id="SvgjsG14514">
    <path class="cls-4" d="m218.28,174.48c0-26.83,11.05-51.13,28.81-68.61-9.57-4.39-20.18-6.91-31.41-6.91-41.71,0-75.52,33.81-75.52,75.52s33.81,75.52,75.52,75.52c11.23,0,21.84-2.51,31.41-6.91-17.76-17.49-28.81-41.78-28.81-68.62Z"/>
    <path class="cls-2" d="m314.63,171.88c-26.83,0-51.13-11.05-68.61-28.82-4.39,9.58-6.91,20.19-6.91,31.42,0,41.71,33.81,75.52,75.52,75.52s75.52-33.81,75.52-75.52c0-11.23-2.51-21.84-6.91-31.42-17.49,17.77-41.78,28.82-68.62,28.82Z"/>
    <path class="cls-1" d="m314.63,0c-11.23,0-21.84,2.51-31.42,6.91,17.77,17.49,28.82,41.78,28.82,68.62s-11.05,51.13-28.82,68.61c9.58,4.39,20.19,6.91,31.42,6.91,41.71,0,75.52-33.81,75.52-75.52S356.34,0,314.63,0Z"/>
    <path class="cls-3" d="m215.68,78.12c26.83,0,51.13,11.05,68.61,28.81,4.39-9.57,6.91-20.18,6.91-31.41C291.19,33.81,257.38,0,215.68,0s-75.52,33.81-75.52,75.52c0,11.23,2.51,21.84,6.91,31.41,17.49-17.76,41.78-28.81,68.62-28.81Z"/>
  </g>
  <g id="SvgjsG14515">
    <path d="m93.61,291.45l-35.84,55.79v51.27h-22.71v-50.75L-1,291.45h25.05l22.26,36.45,22.33-36.45h24.97Zm14.45,107.06v-107.06h22.71v107.06h-22.71Zm71.37-19.47h32.44v19.47h-55.15v-107.06h22.71v87.6h0Zm50.29,19.47v-107.06h22.71v107.06h-22.71Zm121.66-107.06h22.71v107.06h-25.66l-47.33-76.54v76.54h-22.71v-107.06h25.37l47.63,76.09v-76.09h0Zm94.24,108.55c-31.53,0-54.74-21.47-54.74-55.09s23.74-55.61,55.87-55.61c21.09,0,38.56,9.17,48.09,25.35l-19.89,10.44c-5.75-11.03-16.03-16.33-28.2-16.33-18.9,0-33.12,12.82-33.12,35.63s13.31,36.16,33.95,36.16c13.99,0,26.84-6.86,29.94-22.59h-28.81v-17.84h50.29v58.4h-17.84v-14.91c-7.03,10.21-18.83,16.4-35.54,16.4h0Z"/>
  </g>
</svg>