<?xml version="1.0" encoding="UTF-8"?>
<svg id="_图层_2" data-name="图层 2" xmlns="http://www.w3.org/2000/svg" xmlns:xlink="http://www.w3.org/1999/xlink" viewBox="0 0 152.43 152.43">
  <defs>
    <style>
      .cls-1 {
        fill: url(#_未命名的渐变_4-3);
      }

      .cls-2 {
        fill: url(#_未命名的渐变_4-2);
      }

      .cls-3 {
        fill: url(#_未命名的渐变_4-4);
      }

      .cls-4 {
        fill: url(#_未命名的渐变_4);
      }
    </style>
    <linearGradient id="_未命名的渐变_4" data-name="未命名的渐变 4" x1="-902.85" y1="765.98" x2="-901.85" y2="765.98" gradientTransform="translate(58867.02 70648.74) scale(65.2 -92.09)" gradientUnits="userSpaceOnUse">
      <stop offset="0" stop-color="#00ff8f"/>
      <stop offset="1" stop-color="#00a1ff"/>
    </linearGradient>
    <linearGradient id="_未命名的渐变_4-2" data-name="未命名的渐变 4" x1="-903.98" y1="770.44" x2="-902.98" y2="770.44" gradientTransform="translate(83312.23 50358.49) scale(92.09 -65.21)" xlink:href="#_未命名的渐变_4"/>
    <linearGradient id="_未命名的渐变_4-3" data-name="未命名的渐变 4" x1="-902.85" y1="765.98" x2="-901.85" y2="765.98" gradientTransform="translate(58959.43 70588.41) scale(65.21 -92.09)" xlink:href="#_未命名的渐变_4"/>
    <linearGradient id="_未命名的渐变_4-4" data-name="未命名的渐变 4" x1="-903.98" y1="770.45" x2="-902.98" y2="770.45" gradientTransform="translate(83251.89 50266.95) scale(92.09 -65.2)" xlink:href="#_未命名的渐变_4"/>
  </defs>
  <g id="_图层_1-2" data-name="图层 1">
    <g id="SvgjsG14068">
      <path class="cls-4" d="m47.64,106.39c0-16.36,6.74-31.17,17.57-41.84-5.84-2.68-12.31-4.21-19.15-4.21C20.62,60.34,0,80.96,0,106.39s20.62,46.05,46.05,46.05c6.85,0,13.32-1.53,19.15-4.21-10.83-10.66-17.57-25.47-17.57-41.84Z"/>
      <path class="cls-2" d="m106.39,104.8c-16.36,0-31.17-6.74-41.84-17.57-2.68,5.84-4.21,12.31-4.21,19.16,0,25.43,20.62,46.05,46.05,46.05s46.05-20.62,46.05-46.05c0-6.85-1.53-13.32-4.21-19.16-10.66,10.84-25.47,17.57-41.84,17.57Z"/>
      <path class="cls-1" d="m106.39,0c-6.85,0-13.32,1.53-19.16,4.21,10.84,10.66,17.57,25.47,17.57,41.84s-6.74,31.17-17.57,41.84c5.84,2.68,12.31,4.21,19.16,4.21,25.43,0,46.05-20.62,46.05-46.05S131.82,0,106.39,0Z"/>
      <path class="cls-3" d="m46.05,47.64c16.36,0,31.17,6.74,41.84,17.57,2.68-5.84,4.21-12.31,4.21-19.15C92.09,20.62,71.48,0,46.05,0S0,20.62,0,46.05c0,6.85,1.53,13.32,4.21,19.15,10.66-10.83,25.47-17.57,41.84-17.57Z"/>
    </g>
  </g>
</svg>