<?xml version="1.0" encoding="UTF-8"?>
<svg id="Logo-230x230" xmlns="http://www.w3.org/2000/svg" xmlns:xlink="http://www.w3.org/1999/xlink" viewBox="0 0 230 230">
  <defs>
    <style>
      .cls-1 {
        fill: url(#_未命名的渐变_4-3);
      }

      .cls-2 {
        fill: url(#_未命名的渐变_4-2);
      }

      .cls-3 {
        fill: url(#_未命名的渐变_4-4);
      }

      .cls-4 {
        fill: url(#_未命名的渐变_4);
      }
    </style>
    <linearGradient id="_未命名的渐变_4" data-name="未命名的渐变 4" x1="-461.88" y1="369.11" x2="-459.54" y2="369.11" gradientTransform="translate(19427.93 22090.23) scale(42.06 -59.41)" gradientUnits="userSpaceOnUse">
      <stop offset="0" stop-color="#00ff8f"/>
      <stop offset="1" stop-color="#00a1ff"/>
    </linearGradient>
    <linearGradient id="_未命名的渐变_4-2" data-name="未命名的渐变 4" x1="-460.45" y1="372.39" x2="-458.11" y2="372.39" gradientTransform="translate(27447.54 15845.81) scale(59.41 -42.07)" xlink:href="#_未命名的渐变_4"/>
    <linearGradient id="_未命名的渐变_4-3" data-name="未命名的渐变 4" x1="-460.09" y1="369.99" x2="-457.75" y2="369.99" gradientTransform="translate(19485.9 22051.3) scale(42.07 -59.41)" xlink:href="#_未命名的渐变_4"/>
    <linearGradient id="_未命名的渐变_4-4" data-name="未命名的渐变 4" x1="-461.33" y1="374.18" x2="-458.99" y2="374.18" gradientTransform="translate(27408.61 15788.21) scale(59.41 -42.06)" xlink:href="#_未命名的渐变_4"/>
  </defs>
  <g id="SvgjsG14514">
    <path class="cls-4" d="m71.88,160.52c0-24.69,10.16-47.04,26.5-63.12-8.81-4.04-18.57-6.35-28.9-6.35C31.11,91.04,0,122.15,0,160.52s31.11,69.48,69.48,69.48c10.33,0,20.09-2.31,28.9-6.35-16.34-16.09-26.5-38.44-26.5-63.13Z"/>
    <path class="cls-2" d="m160.52,158.13c-24.69,0-47.04-10.16-63.12-26.51-4.04,8.81-6.35,18.58-6.35,28.91,0,38.37,31.11,69.48,69.48,69.48s69.48-31.11,69.48-69.48c0-10.33-2.31-20.09-6.35-28.91-16.09,16.35-38.44,26.51-63.13,26.51Z"/>
    <path class="cls-1" d="m160.52,0c-10.33,0-20.09,2.31-28.91,6.35,16.35,16.09,26.51,38.44,26.51,63.13s-10.16,47.04-26.51,63.12c8.81,4.04,18.58,6.35,28.91,6.35,38.37,0,69.48-31.11,69.48-69.48S198.89,0,160.52,0Z"/>
    <path class="cls-3" d="m69.48,71.88c24.69,0,47.04,10.16,63.12,26.5,4.04-8.81,6.35-18.57,6.35-28.9C138.96,31.11,107.85,0,69.48,0S0,31.11,0,69.48c0,10.33,2.31,20.09,6.35,28.9,16.09-16.34,38.44-26.5,63.13-26.5Z"/>
  </g>
</svg>